<svg width="1728" height="1117" viewBox="0 0 1728 1117" fill="none" xmlns="http://www.w3.org/2000/svg">
<rect width="1728" height="1117" fill="#1E1E1E"/>
<g clip-path="url(#clip0_1_2)">
<rect width="1728" height="1117" fill="#583BAD"/>
<rect width="1372.01" height="201.786" transform="matrix(0.804359 -0.594144 0.612601 0.790392 514.92 237.17)" fill="#9376F4"/>
<ellipse cx="101.555" cy="100.893" rx="101.555" ry="100.893" transform="matrix(0.804359 -0.594144 0.612601 0.790392 431 299.677)" fill="#9376F4"/>
<rect width="1552.69" height="201.786" transform="matrix(0.804359 -0.594144 0.612601 0.790392 615.812 663.505)" fill="#9376F4"/>
<ellipse cx="106.714" cy="100.893" rx="106.714" ry="100.893" transform="matrix(0.804359 -0.594144 0.612601 0.790392 529.976 726.908)" fill="#9376F4"/>
<rect width="1212.51" height="201.786" transform="matrix(0.804359 -0.594144 0.612601 0.790392 1134.67 780.366)" fill="#9376F4"/>
<ellipse cx="83.3339" cy="100.893" rx="83.3339" ry="100.893" transform="matrix(0.804359 -0.594144 0.612601 0.790392 1067.64 829.878)" fill="#9376F4"/>
<path fill-rule="evenodd" clip-rule="evenodd" d="M1002.94 377.549C1035.65 353.387 1034.5 298.096 1000.36 254.054C966.254 210.044 912.119 193.92 879.399 218.006L1741.12 -418.51L1864.74 -259.019L1002.94 377.549Z" fill="#9376F4"/>
<path fill-rule="evenodd" clip-rule="evenodd" d="M1408.19 579.059C1440.91 554.896 1439.75 499.605 1405.62 455.563C1371.51 411.563 1317.39 395.436 1284.67 419.501L2146.37 -217L2269.99 -57.5096L1408.19 579.059L1408.19 579.059Z" fill="#9376F4"/>
<ellipse cx="161.435" cy="201" rx="102.435" ry="100" fill="#9376F4"/>
<ellipse cx="263.769" cy="707.5" rx="45.5834" ry="44.5" fill="#9376F4"/>
<ellipse cx="855.841" cy="1057.5" rx="89.6303" ry="87.5" fill="#9376F4"/>
<ellipse cx="144.63" cy="1092.5" rx="89.6303" ry="87.5" fill="#9376F4"/>
<rect opacity="0.17" width="1728" height="1117" fill="#9376F4"/>
</g>
<defs>
<clipPath id="clip0_1_2">
<rect width="1728" height="1117" fill="white"/>
</clipPath>
</defs>
</svg>
