<svg width="1728" height="1117" viewBox="0 0 1728 1117" fill="none" xmlns="http://www.w3.org/2000/svg">
<circle cx="220" cy="158" r="27" fill="#F6F5FD"/>
<circle cx="446.5" cy="211.5" r="10.5" fill="#F6F5FD"/>
<circle cx="231.5" cy="374.5" r="63.5" fill="#F6F5FD"/>
<circle cx="683.5" cy="94.5" r="63.5" fill="#F6F5FD"/>
<circle cx="961.5" cy="1147.5" r="63.5" fill="#F6F5FD"/>
<circle cx="1419.5" cy="793.5" r="30.5" fill="#F6F5FD"/>
<rect x="903.375" y="152.861" width="980.904" height="145.212" transform="rotate(-37.1125 903.375 152.861)" fill="#F6F5FD"/>
<circle cx="940.709" cy="215.709" r="72.6058" transform="rotate(-37.1125 940.709 215.709)" fill="#F6F5FD"/>
<rect x="971.596" y="462.404" width="1110.08" height="145.212" transform="rotate(-37.1125 971.596 462.404)" fill="#F6F5FD"/>
<ellipse cx="1015.4" cy="520.304" rx="76.2944" ry="72.6058" transform="rotate(-37.1125 1015.4 520.304)" fill="#F6F5FD"/>
<rect x="1338.78" y="547.252" width="866.871" height="145.212" transform="rotate(-37.1125 1338.78 547.252)" fill="#F6F5FD"/>
<ellipse cx="1382.59" cy="605.151" rx="59.5788" ry="72.6058" transform="rotate(-37.1125 1382.59 605.151)" fill="#F6F5FD"/>
<path fill-rule="evenodd" clip-rule="evenodd" d="M1247.99 254.784C1271.18 237.241 1270.36 197.096 1246.17 165.119C1221.98 133.159 1183.6 121.454 1160.41 138.956L1771.22 -323.201L1858.83 -207.402L1247.99 254.784Z" fill="#F6F5FD"/>
<path fill-rule="evenodd" clip-rule="evenodd" d="M1533.95 401.092C1557.13 383.548 1556.31 343.404 1532.12 311.427C1507.96 279.499 1469.63 267.785 1446.44 285.211L2057.17 -176.893L2144.79 -61.094L1533.95 401.092L1533.95 401.092Z" fill="#F6F5FD"/>
<path fill-rule="evenodd" clip-rule="evenodd" d="M215.816 887.663L378.724 764.401C399.83 748.431 401.163 714.633 381.701 688.911C362.239 663.189 329.352 655.284 308.245 671.254C308.198 671.29 308.151 671.326 308.104 671.362L-247.812 1091.99L-178.177 1184.02L-269 1252.74L-198.522 1345.89L-109.607 1278.61L-39.7418 1370.95L-40.3779 1371.43L29.3721 1463.61L28.1005 1464.57L98.5787 1557.72L727.783 1081.64L726.673 1080.17C731.119 1078.32 735.406 1075.87 739.426 1072.83C765.148 1053.37 770.223 1016.74 750.761 991.019C731.299 965.297 694.67 960.222 668.948 979.684C664.928 982.726 661.412 986.188 658.415 989.962L657.305 988.494L513.857 1097.03C495.188 1104.28 469.447 1094.26 452.439 1071.78C434.703 1048.34 432.584 1019.44 446.463 1003.82L672.689 832.65C699.718 812.2 705.852 774.77 686.39 749.048C666.928 723.326 629.24 719.053 602.211 739.504L602.151 739.55L288.537 976.842C269.707 986.759 241.853 976.93 223.817 953.093C206.999 930.865 204.223 903.731 215.816 887.663Z" fill="#F6F5FD"/>
</svg>
