<svg width="1728" height="1117" viewBox="0 0 1728 1117" fill="none" xmlns="http://www.w3.org/2000/svg">
<circle cx="220" cy="158" r="27" fill="#583BAD"/>
<circle cx="446.5" cy="211.5" r="10.5" fill="#583BAD"/>
<circle cx="231.5" cy="374.5" r="63.5" fill="#583BAD"/>
<circle cx="683.5" cy="94.5" r="63.5" fill="#583BAD"/>
<circle cx="961.5" cy="1147.5" r="63.5" fill="#583BAD"/>
<circle cx="1419.5" cy="793.5" r="30.5" fill="#583BAD"/>
<rect x="903.375" y="152.861" width="980.904" height="145.212" transform="rotate(-37.1125 903.375 152.861)" fill="#583BAD"/>
<circle cx="943.709" cy="212.712" r="72.6058" transform="rotate(-37.1125 943.709 212.712)" fill="#583BAD"/>
<rect x="973.596" y="462.404" width="1110.08" height="145.212" transform="rotate(-37.1125 973.596 462.404)" fill="#583BAD"/>
<ellipse cx="1017.4" cy="520.304" rx="76.2944" ry="72.6058" transform="rotate(-37.1125 1017.4 520.304)" fill="#583BAD"/>
<rect x="1339.78" y="547.252" width="866.871" height="145.212" transform="rotate(-37.1125 1339.78 547.252)" fill="#583BAD"/>
<ellipse cx="1383.59" cy="605.152" rx="59.5788" ry="72.6058" transform="rotate(-37.1125 1383.59 605.152)" fill="#583BAD"/>
<path fill-rule="evenodd" clip-rule="evenodd" d="M1247.99 255.784C1271.18 238.241 1270.36 198.096 1246.17 166.119C1221.98 134.159 1183.6 122.454 1160.41 139.956L1771.22 -322.201L1858.83 -206.402L1247.99 255.784Z" fill="#583BAD"/>
<path fill-rule="evenodd" clip-rule="evenodd" d="M1534.95 401.092C1558.13 383.548 1557.31 343.404 1533.12 311.427C1508.96 279.499 1470.63 267.785 1447.44 285.211L2058.17 -176.893L2145.79 -61.0939L1534.95 401.092L1534.95 401.092Z" fill="#583BAD"/>
<path fill-rule="evenodd" clip-rule="evenodd" d="M221.718 883.197L378.724 764.401C399.83 748.431 401.163 714.633 381.702 688.911C362.239 663.189 329.352 655.284 308.245 671.254C308.198 671.29 308.151 671.326 308.104 671.362L-247.812 1091.99L-177.448 1184.98L-267 1252.74L-196.522 1345.89L-107.607 1278.61L-37.3779 1371.43L32.7363 1464.09L32.1005 1464.57L102.579 1557.72L731.783 1081.64L731.65 1081.46C732.932 1080.64 734.192 1079.77 735.427 1078.83C761.148 1059.37 766.223 1022.74 746.761 997.019C727.299 971.297 690.67 966.223 664.948 985.685C663.714 986.619 662.526 987.593 661.387 988.603L661.305 988.495L519.212 1096.01C500.406 1105.12 473.175 1095.22 455.439 1071.78C435.977 1046.06 435.319 1013.77 453.97 999.656L674.689 832.651C701.718 812.2 707.852 774.77 688.39 749.048C668.928 723.327 631.24 719.054 604.211 739.504L604.151 739.55L290.537 976.843C271.707 986.76 243.853 976.93 225.817 953.094C207.319 928.646 205.809 898.264 221.718 883.197Z" fill="#583BAD"/>
</svg>
