<svg width="32" height="32" viewBox="0 0 32 32" fill="none" xmlns="http://www.w3.org/2000/svg">
<rect width="32" height="32" rx="8" fill="#CB3A31"/>
<path d="M14.5 9H17.5C17.6326 9 17.7598 9.05268 17.8536 9.14645C17.9473 9.24021 18 9.36739 18 9.5V10.5H14V9.5C14 9.36739 14.0527 9.24021 14.1464 9.14645C14.2402 9.05268 14.3674 9 14.5 9ZM19 10.5V9.5C19 9.10218 18.842 8.72064 18.5607 8.43934C18.2794 8.15804 17.8978 8 17.5 8H14.5C14.1022 8 13.7206 8.15804 13.4393 8.43934C13.158 8.72064 13 9.10218 13 9.5V10.5H10.506C10.5027 10.5 10.4993 10.5 10.496 10.5H9.5C9.36739 10.5 9.24021 10.5527 9.14645 10.6464C9.05268 10.7402 9 10.8674 9 11C9 11.1326 9.05268 11.2598 9.14645 11.3536C9.24021 11.4473 9.36739 11.5 9.5 11.5H10.038L10.891 22.16C10.9312 22.6612 11.1588 23.1289 11.5283 23.4698C11.8978 23.8108 12.3822 24.0001 12.885 24H19.115C19.6178 24.0001 20.1022 23.8108 20.4717 23.4698C20.8412 23.1289 21.0688 22.6612 21.109 22.16L21.962 11.5H22.5C22.6326 11.5 22.7598 11.4473 22.8536 11.3536C22.9473 11.2598 23 11.1326 23 11C23 10.8674 22.9473 10.7402 22.8536 10.6464C22.7598 10.5527 22.6326 10.5 22.5 10.5H21.505C21.5017 10.5 21.4983 10.5 21.495 10.5H19ZM20.958 11.5L20.112 22.08C20.0919 22.3306 19.9781 22.5644 19.7934 22.7349C19.6086 22.9054 19.3664 23.0001 19.115 23H12.885C12.6336 23.0001 12.3914 22.9054 12.2066 22.7349C12.0219 22.5644 11.9081 22.3306 11.888 22.08L11.042 11.5H20.958ZM13.471 12.5C13.6033 12.4924 13.7333 12.5376 13.8323 12.6257C13.9313 12.7138 13.9913 12.8377 13.999 12.97L14.499 21.47C14.5043 21.6008 14.458 21.7284 14.3702 21.8255C14.2824 21.9225 14.1601 21.9813 14.0294 21.9892C13.8988 21.997 13.7702 21.9533 13.6714 21.8675C13.5726 21.7816 13.5115 21.6605 13.501 21.53L13 13.03C12.9959 12.9643 13.0049 12.8985 13.0263 12.8362C13.0478 12.774 13.0813 12.7167 13.125 12.6674C13.1686 12.6182 13.2216 12.578 13.2808 12.5493C13.34 12.5206 13.4043 12.5038 13.47 12.5H13.471ZM18.529 12.5C18.5947 12.5038 18.659 12.5206 18.7182 12.5493C18.7774 12.578 18.8304 12.6182 18.874 12.6674C18.9177 12.7167 18.9512 12.774 18.9727 12.8362C18.9941 12.8985 19.0031 12.9643 18.999 13.03L18.499 21.53C18.4963 21.5964 18.4804 21.6617 18.4522 21.7219C18.424 21.7821 18.3841 21.8361 18.3348 21.8807C18.2855 21.9254 18.2278 21.9597 18.165 21.9817C18.1023 22.0037 18.0358 22.013 17.9694 22.009C17.903 22.005 17.8381 21.9878 17.7785 21.9585C17.7188 21.9291 17.6656 21.8881 17.622 21.8379C17.5784 21.7877 17.5452 21.7293 17.5244 21.6661C17.5037 21.603 17.4957 21.5363 17.501 21.47L18.001 12.97C18.0087 12.8377 18.0687 12.7138 18.1677 12.6257C18.2667 12.5376 18.3967 12.4924 18.529 12.5ZM16 12.5C16.1326 12.5 16.2598 12.5527 16.3536 12.6464C16.4473 12.7402 16.5 12.8674 16.5 13V21.5C16.5 21.6326 16.4473 21.7598 16.3536 21.8536C16.2598 21.9473 16.1326 22 16 22C15.8674 22 15.7402 21.9473 15.6464 21.8536C15.5527 21.7598 15.5 21.6326 15.5 21.5V13C15.5 12.8674 15.5527 12.7402 15.6464 12.6464C15.7402 12.5527 15.8674 12.5 16 12.5Z" fill="#F6F5FD"/>
</svg>
