<svg width="32" height="32" viewBox="0 0 32 32" fill="none" xmlns="http://www.w3.org/2000/svg">
<rect width="32" height="32" rx="8" fill="#43936C"/>
<path d="M8.5 17.95C8.63261 17.95 8.75979 18.0027 8.85355 18.0964C8.94732 18.1902 9 18.3174 9 18.45V20.95C9 21.2152 9.10536 21.4696 9.29289 21.6571C9.48043 21.8446 9.73478 21.95 10 21.95H22C22.2652 21.95 22.5196 21.8446 22.7071 21.6571C22.8946 21.4696 23 21.2152 23 20.95V18.45C23 18.3174 23.0527 18.1902 23.1464 18.0964C23.2402 18.0027 23.3674 17.95 23.5 17.95C23.6326 17.95 23.7598 18.0027 23.8536 18.0964C23.9473 18.1902 24 18.3174 24 18.45V20.95C24 21.4804 23.7893 21.9891 23.4142 22.3642C23.0391 22.7393 22.5304 22.95 22 22.95H10C9.46957 22.95 8.96086 22.7393 8.58579 22.3642C8.21071 21.9891 8 21.4804 8 20.95V18.45C8 18.3174 8.05268 18.1902 8.14645 18.0964C8.24021 18.0027 8.36739 17.95 8.5 17.95Z" fill="#F6F5FD"/>
<path d="M15.6457 19.904C15.6921 19.9506 15.7473 19.9875 15.808 20.0127C15.8688 20.0379 15.9339 20.0509 15.9997 20.0509C16.0654 20.0509 16.1305 20.0379 16.1913 20.0127C16.252 19.9875 16.3072 19.9506 16.3537 19.904L19.3537 16.904C19.4475 16.8101 19.5003 16.6828 19.5003 16.55C19.5003 16.4172 19.4475 16.2899 19.3537 16.196C19.2598 16.1021 19.1324 16.0494 18.9997 16.0494C18.8669 16.0494 18.7395 16.1021 18.6457 16.196L16.4997 18.343V9.55C16.4997 9.41739 16.447 9.29022 16.3532 9.19645C16.2594 9.10268 16.1323 9.05 15.9997 9.05C15.867 9.05 15.7399 9.10268 15.6461 9.19645C15.5523 9.29022 15.4997 9.41739 15.4997 9.55V18.343L13.3537 16.196C13.2598 16.1021 13.1324 16.0494 12.9997 16.0494C12.8669 16.0494 12.7395 16.1021 12.6457 16.196C12.5518 16.2899 12.499 16.4172 12.499 16.55C12.499 16.6828 12.5518 16.8101 12.6457 16.904L15.6457 19.904Z" fill="#F6F5FD"/>
</svg>
