<svg width="100" height="100" viewBox="0 0 100 100" fill="none" xmlns="http://www.w3.org/2000/svg">
<path d="M34.3749 46.8749C37.8266 46.8749 40.6249 44.0766 40.6249 40.6249C40.6249 37.1731 37.8266 34.3749 34.3749 34.3749C30.9231 34.3749 28.1249 37.1731 28.1249 40.6249C28.1249 44.0766 30.9231 46.8749 34.3749 46.8749Z" fill="#583BAD"/>
<path d="M71.8754 40.6249C71.8754 44.0766 69.0772 46.8749 65.6254 46.8749C62.1735 46.8749 59.3754 44.0766 59.3754 40.6249C59.3754 37.1731 62.1735 34.3749 65.6254 34.3749C69.0772 34.3749 71.8754 37.1731 71.8754 40.6249Z" fill="#583BAD"/>
<path d="M72.9957 59.0395C71.6538 57.9664 69.6995 58.1776 68.6182 59.5089L68.6001 59.5295C68.5757 59.5576 68.5282 59.612 68.4569 59.6889C68.3144 59.8426 68.0776 60.0851 67.7444 60.3882C67.0776 60.9945 66.0288 61.8382 64.5763 62.6926C61.6901 64.3914 57.1569 66.167 50.7426 66.167C44.3279 66.167 39.7881 64.3907 36.8946 62.6914C35.4389 61.8364 34.3866 60.992 33.7171 60.3851C33.3826 60.082 33.1449 59.8389 33.0016 59.6851C32.9299 59.6082 32.8821 59.5539 32.8576 59.5257L32.8396 59.5045C31.7558 58.1751 29.8006 57.9676 28.4611 59.0432C27.1156 60.1239 26.9009 62.0907 27.9817 63.4364L30.4181 61.4795C27.9817 63.4364 27.9817 63.4364 27.9817 63.4364L27.9862 63.442L27.9913 63.4482L28.0033 63.4632L28.0345 63.5007L28.1263 63.6095C28.2006 63.6951 28.3013 63.8089 28.4287 63.9457C28.6834 64.2189 29.0457 64.5864 29.5191 65.0151C30.4652 65.8732 31.8597 66.9826 33.729 68.0801C37.4854 70.287 43.1078 72.417 50.7426 72.417C58.3776 72.417 63.9944 70.287 67.7463 68.0789C69.6132 66.9807 71.0051 65.8707 71.9488 65.0126C72.4213 64.5832 72.7832 64.2151 73.0369 63.942C73.1638 63.8051 73.2644 63.6914 73.3388 63.6051L73.4301 63.4964L73.4613 63.4589L73.4738 63.4439L73.4788 63.4376C73.4788 63.4376 73.4832 63.432 71.0432 61.4795L73.4832 63.432C74.5613 62.0845 74.3432 60.1176 72.9957 59.0395Z" fill="#583BAD"/>
<path d="M50 0C22.3857 0 0 22.3857 0 50C0 77.6144 22.3857 100 50 100C77.6144 100 100 77.6144 100 50C100 22.3857 77.6144 0 50 0ZM6.25 50C6.25 25.8376 25.8376 6.25 50 6.25C74.1625 6.25 93.75 25.8376 93.75 50C93.75 74.1625 74.1625 93.75 50 93.75C25.8376 93.75 6.25 74.1625 6.25 50Z" fill="#583BAD"/>
</svg>
