<svg width="100" height="100" viewBox="0 0 100 100" fill="none" xmlns="http://www.w3.org/2000/svg">
<path d="M30.0615 44.2084C34.1876 37.1351 38.3137 37.1352 42.4398 44.2084" stroke="#583BAD" stroke-width="3" stroke-linecap="round"/>
<path d="M70.7333 44.2086C66.6072 37.1352 62.4811 37.1353 58.355 44.2086" stroke="#583BAD" stroke-width="3" stroke-linecap="round"/>
<path fill-rule="evenodd" clip-rule="evenodd" d="M70.7083 65.4579C71.2465 65.5327 71.7723 65.749 72.2276 66.1131C73.5751 67.1912 73.7933 69.1581 72.7151 70.5056L70.2751 68.5531C72.7151 70.5056 72.7108 70.5112 72.7108 70.5112L72.7058 70.5174L72.6933 70.5324L72.662 70.5699L72.5708 70.6787C72.4964 70.7649 72.3958 70.8787 72.2689 71.0156C72.0151 71.2887 71.6533 71.6568 71.1808 72.0862C70.237 72.9443 68.8451 74.0543 66.9783 75.1524C63.2264 77.3606 57.6095 79.4906 49.9745 79.4906C42.3398 79.4906 36.7174 77.3606 32.9609 75.1537C31.0916 74.0562 29.6971 72.9468 28.751 72.0887C28.2776 71.6599 27.9153 71.2924 27.6606 71.0193C27.5333 70.8824 27.4326 70.7687 27.3583 70.6831L27.2664 70.5743L27.2352 70.5368L27.2232 70.5218L27.2181 70.5156L27.2136 70.5099C26.1328 69.1643 26.3475 67.1974 27.6931 66.1168C28.1468 65.7524 28.6712 65.5353 29.2084 65.4592L29.1774 65.4281H70.2635C70.2725 65.4281 70.2815 65.4281 70.2906 65.4281H70.7331L70.7083 65.4579Z" fill="#583BAD"/>
<path d="M50 0C22.3857 0 0 22.3857 0 50C0 77.6144 22.3857 100 50 100C77.6144 100 100 77.6144 100 50C100 22.3857 77.6144 0 50 0ZM6.25 50C6.25 25.8376 25.8376 6.25 50 6.25C74.1625 6.25 93.75 25.8376 93.75 50C93.75 74.1625 74.1625 93.75 50 93.75C25.8376 93.75 6.25 74.1625 6.25 50Z" fill="#583BAD"/>
</svg>
