<svg width="100" height="100" viewBox="0 0 100 100" fill="none" xmlns="http://www.w3.org/2000/svg">
<path d="M34.3749 46.8749C37.8266 46.8749 40.6249 44.0766 40.6249 40.6249C40.6249 37.1731 37.8266 34.3749 34.3749 34.3749C30.9231 34.3749 28.1249 37.1731 28.1249 40.6249C28.1249 44.0766 30.9231 46.8749 34.3749 46.8749Z" fill="#583BAD"/>
<path d="M71.8754 40.6249C71.8754 44.0766 69.0772 46.8749 65.6254 46.8749C62.1735 46.8749 59.3754 44.0766 59.3754 40.6249C59.3754 37.1731 62.1735 34.3749 65.6254 34.3749C69.0772 34.3749 71.8754 37.1731 71.8754 40.6249Z" fill="#583BAD"/>
<path d="M28.2932 68.9647H73.3855" stroke="#583BAD" stroke-width="3" stroke-linecap="round"/>
<path d="M50 0C22.3857 0 0 22.3857 0 50C0 77.6144 22.3857 100 50 100C77.6144 100 100 77.6144 100 50C100 22.3857 77.6144 0 50 0ZM6.25 50C6.25 25.8376 25.8376 6.25 50 6.25C74.1625 6.25 93.75 25.8376 93.75 50C93.75 74.1625 74.1625 93.75 50 93.75C25.8376 93.75 6.25 74.1625 6.25 50Z" fill="#583BAD"/>
</svg>
