<svg width="100" height="100" viewBox="0 0 100 100" fill="none" xmlns="http://www.w3.org/2000/svg">
<path d="M34.3745 46.8751C37.8263 46.8751 40.6245 44.0769 40.6245 40.6251C40.6245 37.1734 37.8263 34.3751 34.3745 34.3751C30.9228 34.3751 28.1245 37.1734 28.1245 40.6251C28.1245 44.0769 30.9228 46.8751 34.3745 46.8751Z" fill="#583BAD"/>
<path d="M71.8754 40.6251C71.8754 44.0769 69.0772 46.8751 65.6254 46.8751C62.1735 46.8751 59.3754 44.0769 59.3754 40.6251C59.3754 37.1734 62.1735 34.3751 65.6254 34.3751C69.0772 34.3751 71.8754 37.1734 71.8754 40.6251Z" fill="#583BAD"/>
<path d="M72.2656 71.1902C70.9237 72.2634 68.9693 72.0521 67.8881 70.7209L67.87 70.7002C67.8456 70.6721 67.7981 70.6177 67.7268 70.5409C67.5843 70.3871 67.3475 70.1446 67.0143 69.8415C66.3475 69.2352 65.2987 68.3915 63.8462 67.5371C60.96 65.8384 56.4268 64.0627 50.0125 64.0627C43.5978 64.0627 39.058 65.839 36.1645 67.5384C34.7088 68.3934 33.6565 69.2377 32.987 69.8446C32.6525 70.1477 32.4148 70.3909 32.2715 70.5446C32.1998 70.6215 32.152 70.6759 32.1275 70.704L32.1095 70.7252C31.0257 72.0546 29.0705 72.2621 27.731 71.1865C26.3855 70.1059 26.1708 68.139 27.2516 66.7934L29.688 68.7502C27.2516 66.7934 27.2516 66.7934 27.2516 66.7934L27.2561 66.7877L27.2612 66.7815L27.2732 66.7665L27.3044 66.729L27.3962 66.6202C27.4705 66.5346 27.5712 66.4209 27.6986 66.284C27.9533 66.0109 28.3156 65.6434 28.789 65.2146C29.7351 64.3565 31.1296 63.2471 32.9989 62.1496C36.7553 59.9427 42.3777 57.8127 50.0125 57.8127C57.6475 57.8127 63.2643 59.9427 67.0162 62.1509C68.8831 63.249 70.275 64.359 71.2187 65.2171C71.6912 65.6465 72.0531 66.0146 72.3068 66.2877C72.4337 66.4246 72.5343 66.5384 72.6087 66.6246L72.7 66.7334L72.7312 66.7709L72.7437 66.7859L72.7487 66.7921C72.7487 66.7921 72.7531 66.7977 70.3131 68.7502L72.7531 66.7977C73.8312 68.1452 73.6131 70.1121 72.2656 71.1902Z" fill="#583BAD"/>
<path d="M50 0C22.3857 0 0 22.3857 0 50C0 77.6144 22.3857 100 50 100C77.6144 100 100 77.6144 100 50C100 22.3857 77.6144 0 50 0ZM6.25 50C6.25 25.8376 25.8376 6.25 50 6.25C74.1625 6.25 93.75 25.8376 93.75 50C93.75 74.1625 74.1625 93.75 50 93.75C25.8376 93.75 6.25 74.1625 6.25 50Z" fill="#583BAD"/>
</svg>
