<svg width="16" height="16" viewBox="0 0 16 16" fill="none" xmlns="http://www.w3.org/2000/svg">
<path fill-rule="evenodd" clip-rule="evenodd" d="M14.4001 7.99998C14.4001 11.5346 11.5347 14.4 8.0001 14.4C4.46548 14.4 1.6001 11.5346 1.6001 7.99998C1.6001 4.46535 4.46548 1.59998 8.0001 1.59998C11.5347 1.59998 14.4001 4.46535 14.4001 7.99998ZM8.8001 11.2C8.8001 11.6418 8.44193 12 8.0001 12C7.55827 12 7.2001 11.6418 7.2001 11.2C7.2001 10.7581 7.55827 10.4 8.0001 10.4C8.44193 10.4 8.8001 10.7581 8.8001 11.2ZM8.0001 3.99998C7.55827 3.99998 7.2001 4.35815 7.2001 4.79998V7.99998C7.2001 8.4418 7.55827 8.79998 8.0001 8.79998C8.44193 8.79998 8.8001 8.4418 8.8001 7.99998V4.79998C8.8001 4.35815 8.44193 3.99998 8.0001 3.99998Z" fill="#CB3A31"/>
</svg>
