<svg width="45" height="45" viewBox="0 0 45 45" fill="none" xmlns="http://www.w3.org/2000/svg">
<path d="M33.0733 0C32.0583 0.0565709 31.0432 0.169713 30.0846 0.509138C28.562 1.07485 27.0959 1.92341 25.8553 3.16797C25.4983 3.39497 25.1968 3.69957 24.973 4.05924C24.7492 4.41891 24.6089 4.82445 24.5624 5.24586C24.5159 5.66727 24.5645 6.09377 24.7045 6.49382C24.8445 6.89387 25.0723 7.25724 25.3711 7.55704C25.67 7.85684 26.0322 8.08541 26.431 8.22584C26.8298 8.36627 27.2549 8.41497 27.675 8.36834C28.095 8.32171 28.4993 8.18094 28.8578 7.95644C29.2163 7.73194 29.52 7.42946 29.7462 7.07137C30.3665 6.44909 31.0996 6.10966 31.8891 5.82681C33.8628 5.14796 36.2876 5.43081 37.8665 7.07137C40.0658 9.27763 40.0658 12.9547 37.8665 15.2176L29.4079 23.7032C26.9267 26.1923 24.8966 26.4186 23.4305 26.3621C21.9643 26.3055 21.1184 25.6266 21.1184 25.6266C20.7926 25.4409 20.4335 25.3214 20.0616 25.2749C19.6897 25.2284 19.3123 25.2558 18.951 25.3556C18.5897 25.4554 18.2515 25.6257 17.9558 25.8566C17.6601 26.0875 17.4126 26.3746 17.2274 26.7015C17.0423 27.0284 16.9232 27.3886 16.8768 27.7617C16.8305 28.1348 16.8578 28.5133 16.9573 28.8758C17.0568 29.2383 17.2265 29.5775 17.4567 29.8742C17.6869 30.1709 17.973 30.4192 18.2989 30.6049C18.2989 30.6049 20.2162 31.8494 23.0357 32.0191C25.8553 32.1889 29.8026 31.114 33.2425 27.6066L41.7011 19.121C46.0996 14.7084 46.0996 7.58051 41.7011 3.22454C40.1222 1.64056 38.2613 0.678851 36.2312 0.226284C35.2162 0 34.0883 0 33.0733 0.0565709V0ZM21.7951 13.0679C18.9756 12.9547 15.0846 13.9165 11.7575 17.3107L3.29887 25.7963C-1.09962 30.2089 -1.09962 37.3368 3.29887 41.6928C6.45677 44.8608 10.968 45.7659 14.9154 44.3516C16.438 43.7859 17.9041 42.9373 19.1447 41.6928C19.5017 41.4658 19.8032 41.1612 20.027 40.8015C20.2508 40.4418 20.3911 40.0363 20.4376 39.6149C20.4841 39.1935 20.4355 38.767 20.2955 38.3669C20.1556 37.9669 19.9277 37.6035 19.6289 37.3037C19.33 37.0039 18.9678 36.7753 18.569 36.6349C18.1703 36.4945 17.7451 36.4458 17.325 36.4924C16.905 36.539 16.5007 36.6798 16.1422 36.9043C15.7837 37.1288 15.48 37.4313 15.2538 37.7894C14.6335 38.4117 13.9004 38.7511 13.1109 39.0339C11.1372 39.7128 8.71241 39.4299 7.13346 37.7894C4.93421 35.5831 4.93421 31.906 7.13346 29.6432L15.5921 21.1575C17.8477 18.8947 19.8214 18.6118 21.4004 18.6684C22.9793 18.725 24.0508 19.1775 24.0508 19.1775C24.3811 19.4261 24.7619 19.5989 25.1662 19.6835C25.5705 19.7682 25.9883 19.7628 26.3903 19.6676C26.7922 19.5724 27.1684 19.3898 27.4922 19.1327C27.8161 18.8756 28.0797 18.5502 28.2644 18.1797C28.4491 17.8091 28.5504 17.4024 28.5611 16.9882C28.5718 16.574 28.4917 16.1626 28.3265 15.7829C28.1612 15.4032 27.9148 15.0646 27.6047 14.7909C27.2946 14.5173 26.9284 14.3153 26.532 14.1993C26.532 14.1993 24.6147 13.0679 21.7951 12.9547V13.0679Z" fill="#583BAD"/>
</svg>
