<svg width="24" height="25" viewBox="0 0 24 25" fill="none" xmlns="http://www.w3.org/2000/svg">
<path fill-rule="evenodd" clip-rule="evenodd" d="M9.90846 4.2188C10.8265 2.5868 13.1749 2.5868 14.0917 4.2188L20.7877 16.1228C21.6877 17.7236 20.5321 19.6988 18.6973 19.6988H5.30406C3.46806 19.6988 2.31246 17.7236 3.21246 16.1228L9.90846 4.2188ZM13.2001 16.1C13.2001 16.4183 13.0736 16.7235 12.8486 16.9485C12.6235 17.1736 12.3183 17.3 12.0001 17.3C11.6818 17.3 11.3766 17.1736 11.1515 16.9485C10.9265 16.7235 10.8001 16.4183 10.8001 16.1C10.8001 15.7817 10.9265 15.4765 11.1515 15.2515C11.3766 15.0264 11.6818 14.9 12.0001 14.9C12.3183 14.9 12.6235 15.0264 12.8486 15.2515C13.0736 15.4765 13.2001 15.7817 13.2001 16.1ZM12.0001 6.5C11.6818 6.5 11.3766 6.62643 11.1515 6.85147C10.9265 7.07651 10.8001 7.38174 10.8001 7.7V11.3C10.8001 11.6183 10.9265 11.9235 11.1515 12.1485C11.3766 12.3736 11.6818 12.5 12.0001 12.5C12.3183 12.5 12.6235 12.3736 12.8486 12.1485C13.0736 11.9235 13.2001 11.6183 13.2001 11.3V7.7C13.2001 7.38174 13.0736 7.07651 12.8486 6.85147C12.6235 6.62643 12.3183 6.5 12.0001 6.5Z" fill="#CB3A31"/>
</svg>
